<svg width="56" height="56" viewBox="0 0 56 56" fill="none" xmlns="http://www.w3.org/2000/svg">
<rect x="0.5" y="0.5" width="55" height="55" rx="11.5" fill="white" stroke="#BDCCDE"/>
<path d="M27.9909 50.9337C40.6279 50.9337 50.8723 40.6894 50.8723 28.0523C50.8723 15.4152 40.6279 5.17078 27.9909 5.17078C15.3538 5.17078 5.10938 15.4152 5.10938 28.0523C5.10938 40.6894 15.3538 50.9337 27.9909 50.9337Z" fill="url(#paint0_radial_22_5891)"/>
<mask id="mask0_22_5891" style="mask-type:alpha" maskUnits="userSpaceOnUse" x="5" y="5" width="46" height="46">
<path d="M27.9479 50.9337C40.585 50.9337 50.8294 40.6894 50.8294 28.0523C50.8294 15.4152 40.585 5.17078 27.9479 5.17078C15.3108 5.17078 5.06641 15.4152 5.06641 28.0523C5.06641 40.6894 15.3108 50.9337 27.9479 50.9337Z" fill="white"/>
</mask>
<g mask="url(#mask0_22_5891)">
<path opacity="0.3" d="M7.59213 26.1225C8.07433 26.7439 8.63298 26.7963 9.21723 26.5042C9.25209 26.5734 8.60076 28.5541 8.48944 28.811C8.3771 29.0703 8.62025 30.478 8.67494 31.1798C8.73131 31.8907 9.77032 32.4399 10.403 32.714C11.0357 32.9882 10.7416 33.067 10.2752 33.687C9.81114 34.308 7.51982 35.3775 7.02604 35.6042C6.53051 35.8415 6.00858 37.5675 5.65528 38.2394C5.30301 38.9088 4.69886 38.6471 3.9884 38.924C3.28134 39.1996 2.81062 40.1228 2.05908 40.7944C1.31333 41.4658 0.253467 41.2777 -0.722759 41.027C-1.6932 40.776 -1.04457 39.9636 -0.873944 39.1788L-0.865105 39.1397C-0.664827 38.2543 0.38565 33.61 0.317516 32.8045C0.247277 31.9886 0.195982 31.7941 0.671057 31.3106C1.13931 30.8298 0.029021 30.1453 -2.05424 29.5872C-4.13513 29.0302 -3.48592 25.8761 -3.02416 24.8105C-2.56137 23.7425 -0.124646 22.5723 0.248464 22.3892C0.620546 22.2087 0.67248 22.1605 1.35321 22.2521C2.03735 22.3423 4.1563 22.7464 4.85494 23.4616C5.55835 24.1789 5.01303 24.5246 5.58427 25.1818C6.14155 25.8386 7.10755 25.5 7.59213 26.1225Z" fill="white"/>
<path d="M39.6929 25.2436C39.5164 25.5724 39.4394 25.6202 39.1619 26.305C38.8805 26.9852 38.9696 26.8091 38.7104 27.2325C38.4531 27.6583 38.081 27.6787 37.6859 27.9386C37.2867 28.1961 37.1437 28.7579 37.1437 28.7579C36.788 29.1738 38.507 28.2355 39.1028 27.9439C39.7008 27.6502 39.5835 27.2491 39.6755 26.707C39.7675 26.1628 39.9278 26.0978 40.1879 25.8833C40.4523 25.6691 40.292 25.1849 40.2006 24.8396C40.0983 24.4934 39.8646 24.921 39.6929 25.2436Z" fill="white" fill-opacity="0.3"/>
<path d="M31.5557 39.8382C31.7934 39.812 31.8351 39.4755 32.062 39.6758C32.2898 39.8791 32.4296 40.1691 32.8397 40.1841C33.2429 40.1922 33.4562 40.4197 33.5858 40.1008C33.7175 39.7832 33.9969 39.4206 34.0755 39.1366C34.1532 38.8493 33.7807 38.5228 33.3139 38.6105C32.8472 38.6983 32.182 38.8607 32.2718 38.7122C32.3591 38.5677 32.7782 38.2867 32.8325 37.9882C32.889 37.6908 33.1577 37.5545 32.5777 37.467C31.9933 37.3824 31.7688 37.1782 31.4437 37.3489C31.1195 37.5227 30.6532 37.8683 30.552 37.4099C30.451 36.9516 30.0017 35.85 30.0017 35.85C29.9804 35.7357 29.5085 34.4177 29.5232 35.1279C29.537 35.8348 29.4967 37.0077 29.5391 37.4634C29.5761 37.9186 29.6111 38.4411 29.9951 38.4404C30.3783 38.4363 30.4523 38.4181 30.6934 38.8624C30.9292 39.2926 31.3191 39.8624 31.5557 39.8382Z" fill="white" fill-opacity="0.3"/>
<path d="M38.3341 44.1599C37.8712 43.8308 38.1254 43.6804 37.5352 43.4444C36.945 43.2084 36.4221 43.2117 36.2799 43.067C36.1428 42.9209 35.4068 42.4772 35.4307 42.8895C35.4566 43.3045 36.1501 43.562 36.3129 43.711C36.4753 43.8623 35.9705 44.0202 36.2721 44.2845C36.576 44.5493 36.743 44.965 37.2164 44.9467C37.6924 44.9265 37.7999 45.2148 38.1555 45.3466C38.5186 45.4776 38.9129 45.4475 38.7951 45.2433C38.6685 45.0467 38.6128 44.7979 38.6784 44.6103C38.7466 44.4211 38.7898 44.4899 38.3341 44.1599Z" fill="white" fill-opacity="0.3"/>
<path d="M35.7413 45.575C35.3183 44.9311 34.4006 43.7838 34.4373 44.4493C34.4689 45.1193 33.6832 45.8165 33.3309 45.8726C33.0135 45.9195 33.1038 45.5564 33.0274 45.2686C32.9526 44.9867 32.7011 44.7546 31.9901 45.1706C31.2666 45.5867 31.3034 46.3705 31.0764 46.3591C30.8602 46.3419 30.2788 46.3438 30.0509 46.8213C29.817 47.3004 29.7057 48.1234 29.3453 48.3716C28.9761 48.6221 27.6729 49.1517 27.8242 49.7214C27.9738 50.2853 28.5386 51.041 28.6256 51.5095C28.7127 51.9781 28.3795 53.1962 29.282 53.3019C29.8015 53.36 30.1428 53.2975 30.6152 52.8733C31.0781 52.4486 33.2011 51.0914 33.574 51.2538C33.9419 51.4206 34.5839 51.8695 34.835 51.9366C35.3302 52.0789 35.6033 52.6381 36.2138 52.6286C36.8155 52.6212 37.2779 52.57 37.5105 52.5082C37.7489 52.445 38.5112 51.9408 38.5835 51.3926C38.655 50.8414 38.7154 49.5807 38.7344 48.9719C38.7619 48.3609 38.7507 47.6855 38.1158 47.322C37.4825 46.9642 36.1643 46.2188 35.7413 45.575Z" fill="white" fill-opacity="0.3"/>
<path fill-rule="evenodd" clip-rule="evenodd" d="M43.837 24.2894C43.3761 22.1543 42.4449 20.1491 41.1115 18.4203C39.0577 15.9159 36.3926 13.9852 33.3744 12.8153L32.0849 12.3459C32.3394 12.4817 32.5839 12.647 32.8301 12.8134C33.0093 12.9346 33.1893 13.0562 33.3744 13.1675C36.8459 15.3213 39.5528 18.5142 41.1115 22.2939C41.3555 22.9438 41.5515 23.6108 41.6976 24.2894H43.837ZM35.1789 33.1043C36.0209 33.0548 36.8134 32.7081 37.4077 32.2128L34.0398 25.0809L37.5563 23.4465L34.2786 20.6928L27.9976 23.615L29.641 27.1143L32.0442 25.9698L35.1789 33.1043Z" fill="white"/>
<path fill-rule="evenodd" clip-rule="evenodd" d="M21.7032 29.108L-1.04346 30.2897L3.67496 33.0923L22.1768 30.5666C21.9841 30.0951 21.8253 29.608 21.7032 29.108ZM22.5969 31.4695L6.15607 33.7475L10.4154 35.6791L23.5498 32.9721C23.1914 32.4974 22.8723 31.9952 22.5969 31.4695ZM24.2038 33.76L13.1383 36.1295L18.366 37.3363L25.724 35.1543C25.1734 34.7328 24.6645 34.266 24.2038 33.76ZM26.6976 35.8251L25.7191 37.6107C26.079 37.8906 26.5358 38.1382 26.933 38.3537C27.0278 38.405 27.1191 38.4545 27.205 38.5021L25.5705 41.7215C25.6505 42.0542 26.1071 42.3335 26.4125 42.4644C26.7592 42.613 27.3039 42.712 27.7002 42.613L29.2355 39.3441C30.6402 39.8195 32.3558 39.9385 33.7425 39.9385C35.3273 39.889 37.1103 39.5918 37.8532 39.245L39.5866 42.4148C39.5866 42.4148 40.3429 42.4825 40.8744 42.2167C41.3696 41.969 41.6668 41.4738 41.6668 41.4738L39.9334 38.3041C40.0781 38.2172 40.2133 38.1414 40.3461 38.0669C40.6676 37.8865 40.9749 37.714 41.3696 37.4126C41.9275 36.9866 42.3106 36.6696 42.3106 36.6696L39.8051 35.8196C37.9278 36.9823 35.6725 37.66 33.2469 37.66C30.8251 37.66 28.5732 36.9844 26.6976 35.8251ZM40.7737 35.1513L48.9333 37.9096L54.0913 36.2884L42.3565 33.6861C41.8796 34.2195 41.3494 34.7102 40.7737 35.1513ZM42.9947 32.9043L56.3844 35.4993L60.4873 33.3753L43.95 31.3668C43.6757 31.9047 43.3556 32.4187 42.9947 32.9043ZM44.3634 30.451L62.7033 32.7072L67.4218 30.2806L44.8046 29.0503C44.6904 29.5297 44.5426 29.9974 44.3634 30.451Z" fill="white"/>
<path fill-rule="evenodd" clip-rule="evenodd" d="M68.993 29.3877L75.1474 25.2499H41.8547C41.8861 26.5607 41.6673 27.8655 41.2099 29.0941C40.0251 32.3121 36.8944 34.3902 33.4729 34.2296C30.1161 34.181 27.0801 32.2226 25.648 29.1822C25.1071 27.9429 24.8373 26.6022 24.8567 25.2499H-8.55322L-2.45738 29.3877L22.7127 28.0377C23.094 30.2314 23.9597 31.8285 25.2237 33.2031C27.2249 35.4216 30.1624 36.6443 33.148 36.6699C36.1199 36.76 39.4444 35.3328 41.32 33.1535C42.5408 31.735 43.4001 30.2809 43.7963 28.0523L68.993 29.3877Z" fill="white"/>
<path opacity="0.3" d="M46.1936 12.2301C47.0967 12.068 49.07 13.8321 49.4012 14.0911C49.7374 14.3504 50.5319 15.0865 50.5497 15.4005C50.5629 15.7043 49.9589 16.2154 49.6851 16.4986C49.4088 16.7842 48.9519 16.188 48.4382 16.1328C47.9249 16.0701 48.3551 16.6101 48.1235 17.1689C47.8921 17.7251 45.6965 18.4503 45.1954 18.6665C44.6895 18.88 44.6589 19.0298 44.6047 19.479C44.5481 19.9255 44.2452 20.2444 43.6999 20.724C43.1545 21.206 42.8146 21.9303 42.5244 22.5155C42.2366 23.1036 42.3021 21.8999 42.296 21.4177C42.2925 20.9355 42.8999 18.8075 41.1505 18.8663C40.6032 18.8813 39.8547 19.3996 39.391 19.978C38.9301 20.5515 39.4804 20.435 39.7713 20.9326C40.0623 21.4278 39.659 21.9474 39.4239 22.5705C39.189 23.1912 37.4134 24.6894 37.17 24.9171C36.9243 25.1423 36.9917 26.0501 36.9719 26.4142C36.9521 26.7782 36.3503 26.7455 35.8229 26.8957C35.2979 27.0485 35.7628 25.8989 35.6686 25.5311C35.5717 25.1656 34.995 25.6757 34.5957 26.2576C34.1816 26.8387 34.9522 27.5141 34.8315 28.6824C34.7108 29.8533 32.5374 30.1251 32.221 30.1403C31.8999 30.155 31.5278 30.6465 31.9972 31.5166C32.4665 32.3867 31.5121 32.4888 30.9438 32.8454C30.3801 33.2072 30.4078 32.697 30.193 32.3525C29.9882 32.0085 29.7444 32.7454 29.4672 33.0931C29.19 33.4406 29.3974 32.277 29.3402 31.7298C29.2829 31.1828 28.0984 30.2166 27.8308 29.8394C27.5681 29.4625 27.5075 30.0305 26.999 30.4251C26.4857 30.822 25.543 32.3059 25.3162 32.7779C25.0918 33.2501 24.854 33.2372 24.6691 32.9836C24.4789 32.7348 23.8131 30.2246 23.372 29.8379C22.936 29.4516 22.0341 28.5878 21.2052 28.4831C20.3739 28.3758 20.225 28.0075 19.6891 27.7673C19.153 27.5295 19.0755 27.4035 19.0575 27.7329C19.6967 28.1304 15.3547 26.62 15.782 26.1638C16.212 25.7027 15.9169 25.3266 15.7749 25.1971C15.6428 25.0682 14.6187 24.8983 14.2803 24.7259C13.9468 24.5562 13.8525 24.1885 13.7101 24.6601C13.5723 25.1394 13.0113 24.8109 12.9355 24.6528C12.862 24.4972 12.6184 24.089 12.4128 24.1697C12.2073 24.248 11.9094 24.4728 11.5536 24.667C11.2004 24.859 11.5197 24.2404 11.6184 23.9776C11.7224 23.7099 10.3837 22.8845 9.81315 22.8236C9.24266 22.7628 8.95015 23.3456 8.69033 23.8754C8.43285 24.408 7.5334 24.595 7.05459 24.8124C6.58568 25.0303 6.2494 24.3165 6.15513 23.9488C6.06074 23.5835 6.30502 23.2937 6.38972 22.7866C6.47443 22.2795 7.33146 22.4155 7.845 22.4732C8.35841 22.5335 7.86753 21.5106 7.52053 21.0397C7.17353 20.5688 7.82561 20.7284 8.37621 20.6068C8.92944 20.4829 9.78808 19.5384 10.0571 19.3419C10.3311 19.1456 10.4812 18.9427 10.7139 18.8659C10.9517 18.787 11.6743 19.2485 12.3588 19.3155C13.0455 19.3851 13.2323 18.5532 13.4625 18.0193C13.695 17.4904 13.6256 17.2134 13.2309 17.0727C12.8362 16.9295 12.7565 17.4369 12.368 18.141C11.982 18.843 11.3252 18.2682 11.2196 18.1085C11.1139 17.9512 11.0527 17.5231 10.9847 17.1294C10.9167 16.7357 10.5428 16.8048 9.85966 16.0747C9.18133 15.3472 10.6717 14.4347 11.524 13.5147C12.3813 12.595 14.5628 10.5749 15.0596 10.3932C15.5564 10.2091 15.6451 10.7257 16.1028 11.2622C16.563 11.7989 16.6569 11.6252 17.0609 12.1887C17.46 12.7519 18.142 12.9107 18.142 12.9107C18.3755 12.8637 18.501 12.6594 18.857 13.0092C19.2066 13.3597 21.1951 12.5698 21.472 12.4598L21.4752 12.4585C21.7394 12.3511 21.9556 12.122 22.4483 12.0593C22.9389 11.9916 24.0934 11.3638 24.2261 11.068C24.3539 10.7744 25.2305 10.6407 25.3892 10.8307C25.5477 11.0206 25.857 10.7692 26.0541 10.2955C26.2488 9.82169 26.5884 10.4736 26.9477 10.7639C27.3045 11.0565 27.0627 9.6548 27.0872 9.20405C27.1118 8.75081 28.0274 8.86269 28.3485 8.75843C28.6697 8.65417 28.9646 8.07157 29.5621 7.58986C30.1645 7.10843 32.4356 6.91394 32.6783 6.88243C34.5612 6.65194 35.2757 8.76991 36.231 9.24662C37.1841 9.71823 39.4962 10.3681 40.0524 10.4182C41.1696 10.5187 43.2543 11.2853 43.5037 11.4504C43.7556 11.6131 45.298 12.3925 46.1936 12.2301Z" fill="white"/>
</g>
<defs>
<radialGradient id="paint0_radial_22_5891" cx="0" cy="0" r="1" gradientUnits="userSpaceOnUse" gradientTransform="translate(18.1845 20.3756) rotate(35.483) scale(24.1465)">
<stop stop-color="#0079FF"/>
<stop offset="1" stop-color="#12326C"/>
</radialGradient>
</defs>
</svg>
